<?xml version="1.0" standalone="no"?>
<!DOCTYPE svg PUBLIC "-//W3C//DTD SVG 20010904//EN"
 "http://www.w3.org/TR/2001/REC-SVG-20010904/DTD/svg10.dtd">
<svg version="1.0" xmlns="http://www.w3.org/2000/svg"
 width="164.000000pt" height="164.000000pt" viewBox="0 0 164.000000 164.000000"
 preserveAspectRatio="xMidYMid meet">
<metadata>
Created by potrace 1.14, written by Peter Selinger 2001-2017
</metadata>
<g transform="translate(0.000000,164.000000) scale(0.100000,-0.100000)"
fill="#000000" stroke="none">
<path d="M664 1556 c-148 -34 -266 -99 -373 -207 -158 -157 -228 -340 -218
-564 15 -326 220 -588 537 -687 63 -19 96 -23 210 -23 114 0 147 4 210 23 253
80 433 259 512 512 19 63 23 96 23 210 0 114 -4 147 -23 210 -79 250 -258 431
-507 510 -90 28 -280 36 -371 16z m284 -102 c252 -51 455 -254 506 -506 20
-97 20 -159 0 -256 -51 -252 -254 -455 -506 -506 -97 -20 -159 -20 -256 0
-252 51 -455 254 -506 506 -20 97 -20 159 0 256 39 192 173 368 345 450 141
68 271 86 417 56z"/>
<path d="M380 970 l0 -140 190 0 190 0 0 50 0 50 60 0 60 0 0 -50 0 -50 190 0
190 0 0 140 0 140 -190 0 -190 0 0 -50 0 -50 -60 0 -60 0 0 50 0 50 -190 0
-190 0 0 -140z m97 30 c-8 -22 -8 -38 0 -60 9 -25 9 -30 -3 -30 -10 0 -14 15
-14 60 0 45 4 60 14 60 12 0 12 -5 3 -30z m203 -30 c0 -45 -4 -60 -14 -60 -12
0 -12 5 -3 30 8 22 8 38 0 60 -9 25 -9 30 3 30 10 0 14 -15 14 -60z m300 45
c-8 -10 -11 -31 -7 -60 4 -27 3 -45 -3 -45 -6 0 -10 27 -10 60 0 49 3 60 16
60 14 0 14 -3 4 -15z m200 -45 c0 -45 -4 -60 -14 -60 -12 0 -12 5 -3 30 8 22
8 38 0 60 -9 25 -9 30 3 30 10 0 14 -15 14 -60z"/>
<path d="M571 574 c-12 -15 -21 -29 -21 -33 0 -10 62 -48 125 -78 50 -23 74
-27 145 -27 78 0 92 3 160 36 41 20 83 44 94 52 18 14 18 16 -4 46 l-22 31
-31 -21 c-74 -50 -120 -65 -197 -65 -77 0 -123 15 -196 65 l-32 21 -21 -27z"/>
</g>
</svg>
